<?xml version="1.0" encoding="utf-8"?>
<!-- Generator: Adobe Illustrator 28.0.0, SVG Export Plug-In . SVG Version: 6.00 Build 0)  -->
<svg version="1.1" id="Layer_1" xmlns="http://www.w3.org/2000/svg" xmlns:xlink="http://www.w3.org/1999/xlink" x="0px" y="0px"
	 viewBox="0 0 512 512" style="enable-background:new 0 0 512 512;" xml:space="preserve">
<style type="text/css">
	.st0{fill:#FFFFFF;}
</style>
<path class="st0" d="M0,73.2c0-11.92,9.59-21.52,21.52-21.52h40.79c19.72,0,37.2,11.48,45.36,28.69h368.46
	c23.58,0,40.79,22.41,34.6,45.18l-36.76,136.54c-7.62,28.15-33.17,47.78-62.31,47.78H153.03l4.84,25.55
	c1.97,10.13,10.85,17.48,21.16,17.48h258.46c11.92,0,21.52,9.59,21.52,21.52c0,11.92-9.59,21.52-21.52,21.52H179.03
	c-31.02,0-57.64-22.05-63.38-52.44L69.39,100.55c-0.63-3.41-3.59-5.83-7.08-5.83H21.52C9.59,94.72,0,85.13,0,73.2z M114.75,467.66
	c0-23.77,19.27-43.03,43.03-43.03s43.03,19.27,43.03,43.03s-19.27,43.03-43.03,43.03S114.75,491.43,114.75,467.66L114.75,467.66z
	 M415.97,424.63c23.77,0,43.03,19.27,43.03,43.03s-19.27,43.03-43.03,43.03l0,0c-23.77,0-43.03-19.27-43.03-43.03
	S392.21,424.63,415.97,424.63z"/>
</svg>
