<?xml version="1.0" encoding="utf-8"?>
<!-- Generator: Adobe Illustrator 28.0.0, SVG Export Plug-In . SVG Version: 6.00 Build 0)  -->
<svg version="1.1" id="Layer_1" xmlns="http://www.w3.org/2000/svg" xmlns:xlink="http://www.w3.org/1999/xlink" x="0px" y="0px"
	 viewBox="0 0 32 32" style="enable-background:new 0 0 32 32;" xml:space="preserve">
<style type="text/css">
	.st0{fill:#79868E;}
</style>
<path class="st0" d="M32,8.37v1.3c0,1.06-0.86,1.92-1.92,1.92H10.02c-1.06,0-1.92-0.86-1.92-1.92v-1.3c0-1.06,0.86-1.92,1.92-1.92
	h20.06C31.14,6.46,32,7.32,32,8.37z M3.21,6.46H1.92C0.86,6.46,0,7.32,0,8.38v1.29c0,1.06,0.86,1.92,1.92,1.92h1.3
	c1.06,0,1.92-0.86,1.92-1.92v-1.3C5.13,7.32,4.27,6.46,3.21,6.46z M30.08,16.66H10.02c-1.06,0-1.92,0.86-1.92,1.92v1.3
	c0,1.06,0.86,1.92,1.92,1.92h20.06c1.06,0,1.92-0.86,1.92-1.92v-1.3C32,17.52,31.14,16.66,30.08,16.66z M3.21,16.66H1.92
	C0.86,16.66,0,17.52,0,18.58v1.3c0,1.06,0.86,1.92,1.92,1.92h1.3c1.06,0,1.92-0.86,1.92-1.92v-1.3C5.13,17.52,4.27,16.66,3.21,16.66
	z M30.08,26.86H10.02c-1.06,0-1.92,0.86-1.92,1.92v1.3c0,1.06,0.86,1.92,1.92,1.92h20.06c1.06,0,1.92-0.86,1.92-1.92v-1.3
	C32,27.72,31.14,26.86,30.08,26.86z M3.21,26.86H1.92C0.86,26.86,0,27.72,0,28.78v1.3C0,31.14,0.86,32,1.92,32h1.3
	c1.06,0,1.92-0.86,1.92-1.92v-1.3C5.13,27.72,4.27,26.86,3.21,26.86z"/>
</svg>
