<?xml version="1.0" encoding="utf-8"?>
<!-- Generator: Adobe Illustrator 28.0.0, SVG Export Plug-In . SVG Version: 6.00 Build 0)  -->
<svg version="1.1" id="Layer_1" xmlns="http://www.w3.org/2000/svg" xmlns:xlink="http://www.w3.org/1999/xlink" x="0px" y="0px"
	 viewBox="0 0 32 32" style="enable-background:new 0 0 32 32;" xml:space="preserve">
<style type="text/css">
	.st0{fill:#79868E;}
</style>
<path class="st0" d="M13.76,8.26v5.89c0,1.38-1.12,2.51-2.51,2.51H5.37c-1.38,0-2.51-1.12-2.51-2.51V8.26
	c0-1.38,1.12-2.51,2.51-2.51h5.89C12.64,5.76,13.76,6.88,13.76,8.26z M26.63,5.76h-5.89c-1.38,0-2.51,1.12-2.51,2.51v5.89
	c0,1.38,1.12,2.51,2.51,2.51h5.89c1.38,0,2.51-1.12,2.51-2.51V8.26C29.14,6.88,28.02,5.76,26.63,5.76z M11.25,21.13H5.37
	c-1.38,0-2.51,1.12-2.51,2.51v5.89c0,1.38,1.12,2.51,2.51,2.51h5.89c1.38,0,2.51-1.12,2.51-2.51v-5.89
	C13.76,22.26,12.64,21.13,11.25,21.13z M26.63,21.13h-5.89c-1.38,0-2.51,1.12-2.51,2.51v5.89c0,1.38,1.12,2.51,2.51,2.51h5.89
	c1.38,0,2.51-1.12,2.51-2.51v-5.89C29.14,22.26,28.02,21.13,26.63,21.13z"/>
</svg>
