<?xml version="1.0" encoding="utf-8"?>
<!-- Generator: Adobe Illustrator 28.0.0, SVG Export Plug-In . SVG Version: 6.00 Build 0)  -->
<svg version="1.1" id="Layer_1" xmlns="http://www.w3.org/2000/svg" xmlns:xlink="http://www.w3.org/1999/xlink" x="0px" y="0px"
	 viewBox="0 0 32 32" style="enable-background:new 0 0 32 32;" xml:space="preserve">
<style type="text/css">
	.st0{fill:#79868E;}
</style>
<path class="st0" d="M0.08,26.98c0,1.1,0.89,2,2,2h3.41c0.76,1.77,2.53,3,4.57,3s3.81-1.23,4.57-3H30c1.1,0,2-0.89,2-2
	c0-1.1-0.89-2-2-2H14.62c-0.76-1.77-2.53-3-4.57-3s-3.81,1.23-4.57,3H2.07C0.97,24.98,0.08,25.87,0.08,26.98z M8.06,26.98
	c0-1.1,0.89-2,2-2s2,0.89,2,2s-0.89,2-2,2S8.06,28.07,8.06,26.98z M20.03,17c0-1.1,0.89-2,2-2s2,0.89,2,2s-0.89,2-2,2
	S20.03,18.09,20.03,17z M22.02,12.01c-2.04,0-3.81,1.23-4.57,3H2.07c-1.1,0-2,0.89-2,2s0.89,2,2,2h15.38c0.76,1.77,2.53,3,4.57,3
	s3.81-1.23,4.57-3H30c1.1,0,2-0.89,2-2s-0.89-2-2-2h-3.41C25.83,13.24,24.07,12.01,22.02,12.01z M12.05,9.02c-1.1,0-2-0.89-2-2
	s0.89-2,2-2s2,0.89,2,2S13.15,9.02,12.05,9.02z M16.62,5.03c-0.76-1.77-2.53-3-4.57-3s-3.81,1.23-4.57,3H2.07c-1.1,0-2,0.88-2,2
	s0.89,2,2,2h5.41c0.76,1.77,2.53,3,4.57,3s3.81-1.23,4.57-3H30c1.1,0,2-0.89,2-2s-0.89-2-2-2H16.62z"/>
</svg>
