<?xml version="1.0" encoding="utf-8"?>
<!-- Generator: Adobe Illustrator 28.0.0, SVG Export Plug-In . SVG Version: 6.00 Build 0)  -->
<svg version="1.1" id="icons_Q2" xmlns="http://www.w3.org/2000/svg" xmlns:xlink="http://www.w3.org/1999/xlink" x="0px" y="0px"
	 viewBox="0 0 23.04 22.02" style="enable-background:new 0 0 23.04 22.02;" xml:space="preserve">
<style type="text/css">
	.st0{fill:#343D44;}
</style>
<path id="Path_4" class="st0" d="M11.52,0c-0.4,0.01-0.76,0.23-0.94,0.58L7.59,6.66L0.88,7.6C0.28,7.72-0.1,8.3,0.02,8.9
	C0.06,9.1,0.16,9.29,0.3,9.44l4.83,4.66l-1.1,6.71C3.94,21.38,4.33,21.92,4.9,22c0.04,0.01,0.08,0.01,0.12,0.01l0.52-0.1l5.98-3.15
	l5.98,3.15l0.52,0.1c0.58-0.02,1.03-0.5,1.01-1.08c0-0.04-0.01-0.08-0.01-0.12l-1.1-6.71l4.82-4.66c0.42-0.44,0.4-1.14-0.04-1.56
	c-0.15-0.14-0.34-0.24-0.54-0.28l-6.71-0.94l-3-6.08C12.27,0.23,11.91,0.01,11.52,0z"/>
</svg>
