<?xml version="1.0" encoding="utf-8"?>
<!-- Generator: Adobe Illustrator 28.0.0, SVG Export Plug-In . SVG Version: 6.00 Build 0)  -->
<svg version="1.1" id="Layer_1" xmlns="http://www.w3.org/2000/svg" xmlns:xlink="http://www.w3.org/1999/xlink" x="0px" y="0px"
	 viewBox="0 0 512 512" style="enable-background:new 0 0 512 512;" xml:space="preserve">
<style type="text/css">
	.st0{fill:#FFFFFF;}
</style>
<path class="st0" d="M47.6,291.4l180.7,168.7c7.5,7,17.4,10.9,27.7,10.9s20.2-3.9,27.7-10.9l180.7-168.7
	c30.4-28.3,47.6-68,47.6-109.5v-5.8c0-69.9-50.5-129.5-119.4-141C347,27.5,300.6,42.4,268,75l-12,12l-12-12
	c-32.6-32.6-79-47.5-124.6-39.9C50.5,46.6,0,106.2,0,176.1v5.8C0,223.4,17.2,263.1,47.6,291.4L47.6,291.4z"/>
</svg>
